<svg viewBox="0 0 100 100" width="32" height="32" xmlns="http://www.w3.org/2000/svg" aria-hidden="true">
  <!-- المصباح -->
  <circle cx="50" cy="30" r="20" fill="gold"/>
  <polygon points="32,40 68,40 58,60 42,60" fill="gold"/>
  
  <!-- توهج داخلي -->
  <circle cx="50" cy="30" r="18" fill="#ffde7955"/>
  <polygon points="34,37 66,37 54,55 46,55" fill="#ffde7955"/>
  
  <!-- الخطوط السفلية (القاعدة) -->
  <line x1="42" y1="65" x2="58" y2="65" stroke="gold" stroke-width="2" stroke-linecap="round"/>
  <line x1="43" y1="68" x2="57" y2="68" stroke="gold" stroke-width="2" stroke-linecap="round"/>
  <path d="M 45 70 A 5 5 0 0 0 55 70" fill="gold" stroke-linecap="round"/>
  
  <!-- اللمعة فوق -->
  <line x1="47" y1="45" x2="43" y2="36" stroke="#ddd" stroke-width="1" />
  <line x1="53" y1="45" x2="57" y2="36" stroke="#ddd" stroke-width="1" />
  <line x1="57" y1="36" x2="43" y2="36" stroke="#ddd" stroke-width="1" />
  
  <!-- الشعلة -->
  <line x1="50" y1="55" x2="50" y2="43" stroke="orange" stroke-width="5" />
  <path d="M 46 43 A 4 4 0 0 1 54 43" fill="orange" stroke-linecap="round"/>
</svg>